<?xml version="1.0" encoding="UTF-8" standalone="no"?>
<!-- Created with Inkscape (http://www.inkscape.org/) -->

<svg
   width="1080"
   height="1080"
   viewBox="0 0 1080 1080"
   version="1.1"
   id="svg1"
   xml:space="preserve"
   inkscape:version="1.4 (86a8ad7, 2024-10-11)"
   sodipodi:docname="IbericLogov3.svg"
   xmlns:inkscape="http://www.inkscape.org/namespaces/inkscape"
   xmlns:sodipodi="http://sodipodi.sourceforge.net/DTD/sodipodi-0.dtd"
   xmlns="http://www.w3.org/2000/svg"
   xmlns:svg="http://www.w3.org/2000/svg"><sodipodi:namedview
     id="namedview1"
     pagecolor="#ffffff"
     bordercolor="#000000"
     borderopacity="0.25"
     inkscape:showpageshadow="2"
     inkscape:pageopacity="0.0"
     inkscape:pagecheckerboard="0"
     inkscape:deskcolor="#d1d1d1"
     inkscape:document-units="px"
     inkscape:zoom="0.70710678"
     inkscape:cx="465.98337"
     inkscape:cy="762.96821"
     inkscape:window-width="1920"
     inkscape:window-height="991"
     inkscape:window-x="-9"
     inkscape:window-y="-9"
     inkscape:window-maximized="1"
     inkscape:current-layer="layer1" /><defs
     id="defs1"><inkscape:path-effect
       effect="fillet_chamfer"
       id="path-effect30"
       is_visible="true"
       lpeversion="1"
       nodesatellites_param="F,0,0,1,0,40.440224,0,1 @ F,0,0,1,0,34.78337,0,1 @ F,0,0,1,0,106.73928,0,1 @ F,0,0,1,0,90.940224,0,1"
       radius="40.440224"
       unit="px"
       method="auto"
       mode="F"
       chamfer_steps="1"
       flexible="false"
       use_knot_distance="true"
       apply_no_radius="true"
       apply_with_radius="true"
       only_selected="false"
       hide_knots="false" /><inkscape:path-effect
       effect="fillet_chamfer"
       id="path-effect29"
       is_visible="true"
       lpeversion="1"
       nodesatellites_param="F,0,0,1,0,13.632259,0,1 @ F,0,0,1,0,17.783017,0,1 @ F,0,0,1,0,89.909824,0,1 @ F,0,0,1,0,72.732764,0,1"
       radius="38.132259"
       unit="px"
       method="auto"
       mode="F"
       chamfer_steps="1"
       flexible="false"
       use_knot_distance="true"
       apply_no_radius="true"
       apply_with_radius="true"
       only_selected="false"
       hide_knots="false" /><inkscape:path-effect
       effect="fillet_chamfer"
       id="path-effect28"
       is_visible="true"
       lpeversion="1"
       nodesatellites_param="F,0,0,1,0,0,0,1 @ F,0,0,1,0,24.374122,0,1 @ F,0,0,1,0,0,0,1 @ F,0,0,1,0,0,0,1 @ F,0,0,1,0,0,0,1 @ F,0,0,1,0,0,0,1 @ F,0,0,1,0,0,0,1 @ F,0,0,1,0,0,0,1 @ F,0,0,1,0,0,0,1 @ F,0,0,1,0,0,0,1 @ F,0,0,1,0,0,0,1 @ F,0,0,1,0,0,0,1 @ F,0,0,1,0,17.87183,0,1"
       radius="0"
       unit="px"
       method="auto"
       mode="F"
       chamfer_steps="1"
       flexible="false"
       use_knot_distance="true"
       apply_no_radius="true"
       apply_with_radius="true"
       only_selected="false"
       hide_knots="false" /></defs><g
     inkscape:label="Capa 1"
     inkscape:groupmode="layer"
     id="layer1"
     style="display:inline"
     transform="matrix(0.98829469,0,0,0.98829469,3.4303734e-7,79.440718)"><path
       id="path50"
       style="display:inline;fill:none;fill-rule:evenodd;stroke:#300404;stroke-width:80.9452;stroke-dasharray:none;stroke-opacity:1"
       d="m 517.77852,109.99524 c 33.72275,0.4736 77.42682,-16.722766 84.44762,15.68104 8.1402,37.57014 -45.4551,37.9418 -53.3732,37.833 -6.02862,-0.0828 -60.7733,-5.21922 -58.81701,-47.68206 2.21183,-48.010468 33.11389,-73.114104 80.5062,-70.633474 52.95313,2.771645 92.86638,50.590332 89.84424,102.645584 -2.00678,34.56627 -22.2375,66.23579 -52.26826,83.40899"
       sodipodi:nodetypes="csssssc"
       inkscape:label="Cola" /><path
       d="M 548.5172,154.01736 C 276.05315,154.50292 49.91631,333.22409 29.408062,564.28134 H 134.384 c 210.95281,-73.59627 649.54251,-227.09266 821.05979,0 H 1067.6283 C 1047.12,333.22345 820.98199,154.50201 548.5172,154.01736 Z"
       style="display:inline;fill:#300404;fill-opacity:1;stroke:#300404;stroke-width:45.801;stroke-linecap:round;stroke-linejoin:round;stroke-dasharray:none;stroke-opacity:1"
       id="path14-9-1"
       inkscape:label="FondoPan"
       sodipodi:nodetypes="cccccc" /><path
       d="M 549.82906,203.96325 C 303.59708,204.36284 99.232056,351.43242 80.698285,541.56934 h 94.869145 c 190.64287,-60.56235 587.00638,-186.87447 742.01047,0 h 101.3835 C 1000.4277,351.43189 796.0617,204.36208 549.82906,203.96325 Z"
       style="display:inline;fill:#b46b2c;fill-opacity:1;stroke:#b46b2c;stroke-width:37.2377;stroke-linecap:round;stroke-linejoin:round;stroke-dasharray:none;stroke-opacity:1"
       id="path14-9-1-5"
       inkscape:label="FondoPan"
       sodipodi:nodetypes="cccccc" /><path
       d="M 1025.7397,579.78675 887.44349,400.42168 c -5.37148,-6.96656 -20.06159,-9.94566 -32.93772,-6.67888 l -181.98132,46.17065 192.00253,135.02333 c 2.06257,1.45048 3.52299,3.10556 4.44569,4.84997 z"
       style="display:inline;fill:#300404;fill-opacity:1;stroke-width:1.74691"
       id="path16-27"
       inkscape:label="Montaña3" /><path
       d="m 928.3728,497.14964 c -16.24678,3.42996 -33.25708,-38.83903 -51.09087,-38.74024 -33.34586,-12.933 -56.74275,-5.72728 -84.63299,-20.75902 0.10796,-2.40696 0.35478,-4.80793 0.74019,-7.19416 l -135.33572,34.33503 163.34158,114.86779 h 170.59384 z"
       style="display:inline;fill:#6c7243;stroke-width:1.74691"
       id="path44"
       sodipodi:nodetypes="cccccccc"
       inkscape:label="Fondo_Montaña3" /><path
       d="m 928.3728,497.14964 -55.39903,-71.84991 c -4.02859,-5.2249 -13.29724,-8.2063 -23.11271,-7.99255 -3.27184,0.0712 -6.60454,0.50329 -9.82506,1.31407 l -60.75236,15.29483 c 1.64099,5.93863 84.89915,23.38307 89.08603,26.58679 26.34222,25.07737 50.44535,39.24641 60.00313,36.64677 z"
       style="display:inline;fill:#ffffff;stroke-width:1.41942"
       id="path45"
       sodipodi:nodetypes="ccssccc"
       inkscape:label="Nieve3" /><path
       d="m 931.06442,579.78675 c -0.91428,-1.74441 -2.36141,-3.39949 -4.40523,-4.84997 L 580.40009,329.19832 c -8.04482,-5.7094 -21.77708,-6.06566 -30.79146,-0.79833 L 388.63944,422.45797 648.0614,572.69254 c 3.25103,1.88271 5.12265,4.42748 6.09088,7.09421 z"
       style="display:inline;fill:#300404;fill-opacity:1;stroke-width:1.63452"
       id="path13-5"
       inkscape:label="Montaña2" /><path
       d="m 669.12326,416.77213 c -24.47251,18.29551 -60.56951,-10.78497 -98.61377,-10.78297 -45.98978,-9.8e-4 -88.48922,24.24109 -111.50774,-0.76646 l -68.05738,40.72518 226.89951,134.5595 c 3.87441,-0.50191 7.88343,-0.85663 12.11497,-0.85663 h 263.27772 z"
       style="display:inline;fill:#6c7243;stroke-width:1.62922"
       id="path40"
       sodipodi:nodetypes="cccccscc"
       inkscape:label="Fondo_Montaña2" /><path
       d="M 694.93892,435.39983 579.82998,351.87796 c -3.96208,-2.8795 -9.32768,-4.40654 -14.80967,-4.55214 -5.48194,-0.14562 -11.08256,1.09165 -15.52212,3.74818 l -96.17414,57.51983 c 23.01854,25.00754 78.73192,-0.10963 124.72172,-0.10766 38.04423,-9.8e-4 92.42067,45.20922 116.89315,26.91371 z"
       style="display:inline;fill:#ffffff;stroke-width:1.41942"
       id="path41"
       sodipodi:nodetypes="ccscccc"
       inkscape:label="Nieve2" /><path
       d="m 663.23297,579.78675 c -1.00184,-2.66673 -2.93847,-5.2115 -6.3024,-7.09421 L 310.81784,378.98377 c -8.04143,-4.50056 -19.45369,-3.73602 -25.58716,1.71355 L 61.157464,579.78675 Z"
       style="display:inline;fill:#300404;fill-opacity:1;stroke-width:1.43558"
       id="path10-3"
       inkscape:label="Montaña1"
       sodipodi:nodetypes="cccccc" /><path
       d="m 377.58185,441.41517 c -10.36925,20.64485 -36.9257,8.51117 -69.31046,8.65514 -27.31369,-0.10993 -54.56447,15.99986 -67.91875,-0.0331 L 94.293578,579.81439 H 624.86612 Z"
       style="display:inline;fill:#6c7243;stroke-width:1.43558"
       id="path36"
       sodipodi:nodetypes="cccccc"
       inkscape:label="Fondo_Montaña1" /><path
       d="m 392.13525,449.19369 -78.27767,-43.44426 c -4.02067,-2.25028 -8.88451,-3.18187 -13.50944,-2.87212 -4.62491,0.30976 -9.01225,1.86064 -12.07895,4.58542 l -59.1358,52.52243 c 13.35429,16.03312 50.44796,-8.90956 77.76163,-8.79958 32.38476,-0.14395 74.87099,18.653 85.24023,-1.99189 z"
       style="display:inline;fill:#ffffff;stroke-width:1.41942"
       id="path37"
       sodipodi:nodetypes="ccscccc"
       inkscape:label="Nieve1" /><rect
       style="fill:#300404;fill-opacity:1;stroke-width:1.74292"
       id="rect27"
       width="932.20349"
       height="26.004858"
       x="59.392086"
       y="553.75629"
       rx="40.684761"
       ry="26.004858"
       inkscape:label="Divisor" /><rect
       style="fill:#300404;fill-opacity:1;stroke-width:1.44194"
       id="rect28"
       width="1083.4146"
       height="156.57445"
       x="6.4021697"
       y="558.70691"
       rx="58.591934"
       ry="56.776852"
       inkscape:label="Borde_Carne" /><rect
       style="display:inline;fill:#944418;fill-opacity:1;stroke-width:1.17774"
       id="rect28-5"
       width="992.75592"
       height="113.99232"
       x="52.245079"
       y="581.8988"
       rx="53.689045"
       ry="41.335766"
       inkscape:label="Fondo_Carne" /><path
       style="display:inline;fill:#300404;fill-opacity:1;stroke-width:1.00227"
       id="rect28-1"
       width="792.15747"
       height="111.52265"
       x="177.79395"
       y="566.56458"
       rx="0"
       ry="0"
       inkscape:path-effect="#path-effect30"
       sodipodi:type="rect"
       d="m 218.23417,566.56458 716.93388,0 a 34.78337,34.78337 45 0 1 34.78337,34.78337 92.957494,92.957494 144.28608 0 1 -106.73928,76.73928 H 268.73417 A 90.940224,90.940224 45 0 1 177.79395,587.147 32.086197,32.086197 153.02576 0 1 218.23417,566.56458 Z"
       transform="matrix(1.3679389,0,0,1.7253752,-237.14018,-284.2559)"
       inkscape:label="Borde_PanBajo" /><path
       style="display:inline;fill:#b46b2c;fill-opacity:1;stroke-width:0.837666"
       id="rect28-5-3"
       width="705.09784"
       height="81.192841"
       x="191.51477"
       y="583.08331"
       rx="0"
       ry="0"
       inkscape:path-effect="#path-effect29"
       sodipodi:type="rect"
       d="m 205.14703,583.08331 h 673.68256 a 17.783017,17.783017 45 0 1 17.78302,17.78302 77.796472,77.796472 144.8062 0 1 -89.90982,63.40982 H 264.24753 a 72.732764,72.732764 45 0 1 -72.73276,-72.73276 11.344853,11.344853 148.17658 0 1 13.63226,-8.46008 z"
       transform="matrix(1.3979404,0,0,1.3539551,-209.45116,-64.109313)"
       inkscape:label="Fondo_PanBajo" /><path
       id="rect45"
       style="fill:#ffffff;stroke-width:1.41942"
       d="m 896.56501,595.59146 h 109.33849 c 11.7954,0 19.7552,11.50406 19.5349,16.90083 l -0.2508,6.14755 c -0.2204,5.3968 -15.485,10.71069 -19.4095,-0.41267 l -0.3763,-1.06641 c -3.9245,-11.12338 -130.17765,-2.09006 -130.15952,-7.49132 l 0.0312,-9.34679 c 0.0181,-5.40124 9.49594,-4.73119 21.29133,-4.73119 z"
       sodipodi:nodetypes="sssssssss"
       inkscape:label="BrilloCarne" /><path
       id="path50-8"
       style="display:inline;fill:none;fill-rule:evenodd;stroke:#b46b2c;stroke-width:23.6897;stroke-dasharray:none"
       d="m 532.93192,98.776852 c 33.71705,0.47488 62.27007,-11.343373 69.2897,21.146238 8.13881,37.66962 -45.4474,38.04228 -53.36419,37.9332 -6.0276,-0.0832 -60.76298,-5.23304 -58.80707,-47.80834 2.21147,-48.137568 33.10831,-73.307646 80.4926,-70.82047 52.94419,2.779008 92.85068,50.724292 89.82903,102.91736 -2.00643,34.65776 -22.23373,66.41118 -52.25941,83.62986"
       sodipodi:nodetypes="csssssc"
       inkscape:label="ColaFondo" /><circle
       style="fill:#b46b2c;fill-opacity:1;stroke:#300404;stroke-width:19.7097;stroke-dasharray:none;stroke-opacity:1"
       id="path51"
       cx="554.49915"
       cy="649.31207"
       inkscape:label="Nariz"
       r="166.83289" /><rect
       style="fill:#300404;fill-opacity:1;stroke:#300404;stroke-width:0;stroke-dasharray:none;stroke-opacity:1"
       id="rect51"
       width="57.459408"
       height="178.42657"
       x="484.18701"
       y="562.36694"
       rx="7560.4482"
       inkscape:label="HuecoNariz_Izquierdo" /><rect
       style="display:inline;fill:#300404;fill-opacity:1;stroke:#300404;stroke-width:0;stroke-dasharray:none;stroke-opacity:1"
       id="rect51-6"
       width="57.459408"
       height="178.42657"
       x="573.40027"
       y="560.85486"
       rx="7560.4482"
       inkscape:label="HuecoNariz_Derecho" /></g></svg>
