<?xml version="1.0" encoding="UTF-8" standalone="no"?>
<!-- Created with Inkscape (http://www.inkscape.org/) -->

<svg
   width="1080"
   height="1080"
   viewBox="0 0 1080 1080"
   version="1.1"
   id="svg1"
   xml:space="preserve"
   inkscape:version="1.4 (86a8ad7, 2024-10-11)"
   sodipodi:docname="logoAlt.svg"
   xmlns:inkscape="http://www.inkscape.org/namespaces/inkscape"
   xmlns:sodipodi="http://sodipodi.sourceforge.net/DTD/sodipodi-0.dtd"
   xmlns="http://www.w3.org/2000/svg"
   xmlns:svg="http://www.w3.org/2000/svg"><sodipodi:namedview
     id="namedview1"
     pagecolor="#ffffff"
     bordercolor="#000000"
     borderopacity="0.25"
     inkscape:showpageshadow="2"
     inkscape:pageopacity="0.0"
     inkscape:pagecheckerboard="0"
     inkscape:deskcolor="#d1d1d1"
     inkscape:document-units="px"
     inkscape:zoom="0.70710678"
     inkscape:cx="523.96613"
     inkscape:cy="555.07882"
     inkscape:window-width="1920"
     inkscape:window-height="991"
     inkscape:window-x="-9"
     inkscape:window-y="-9"
     inkscape:window-maximized="1"
     inkscape:current-layer="layer1-2" /><defs
     id="defs1"><inkscape:path-effect
       effect="fillet_chamfer"
       id="path-effect30"
       is_visible="true"
       lpeversion="1"
       nodesatellites_param="F,0,0,1,0,40.440224,0,1 @ F,0,0,1,0,34.78337,0,1 @ F,0,0,1,0,106.73928,0,1 @ F,0,0,1,0,90.940224,0,1"
       radius="40.440224"
       unit="px"
       method="auto"
       mode="F"
       chamfer_steps="1"
       flexible="false"
       use_knot_distance="true"
       apply_no_radius="true"
       apply_with_radius="true"
       only_selected="false"
       hide_knots="false" /><inkscape:path-effect
       effect="fillet_chamfer"
       id="path-effect29"
       is_visible="true"
       lpeversion="1"
       nodesatellites_param="F,0,0,1,0,13.632259,0,1 @ F,0,0,1,0,17.783017,0,1 @ F,0,0,1,0,89.909824,0,1 @ F,0,0,1,0,72.732764,0,1"
       radius="38.132259"
       unit="px"
       method="auto"
       mode="F"
       chamfer_steps="1"
       flexible="false"
       use_knot_distance="true"
       apply_no_radius="true"
       apply_with_radius="true"
       only_selected="false"
       hide_knots="false" /><inkscape:path-effect
       effect="fillet_chamfer"
       id="path-effect28"
       is_visible="true"
       lpeversion="1"
       nodesatellites_param="F,0,0,1,0,0,0,1 @ F,0,0,1,0,24.374122,0,1 @ F,0,0,1,0,0,0,1 @ F,0,0,1,0,0,0,1 @ F,0,0,1,0,0,0,1 @ F,0,0,1,0,0,0,1 @ F,0,0,1,0,0,0,1 @ F,0,0,1,0,0,0,1 @ F,0,0,1,0,0,0,1 @ F,0,0,1,0,0,0,1 @ F,0,0,1,0,0,0,1 @ F,0,0,1,0,0,0,1 @ F,0,0,1,0,17.87183,0,1"
       radius="0"
       unit="px"
       method="auto"
       mode="F"
       chamfer_steps="1"
       flexible="false"
       use_knot_distance="true"
       apply_no_radius="true"
       apply_with_radius="true"
       only_selected="false"
       hide_knots="false" /><inkscape:path-effect
       effect="fillet_chamfer"
       id="path-effect30-4"
       is_visible="true"
       lpeversion="1"
       nodesatellites_param="F,0,0,1,0,40.440224,0,1 @ F,0,0,1,0,34.78337,0,1 @ F,0,0,1,0,106.73928,0,1 @ F,0,0,1,0,90.940224,0,1"
       radius="40.440224"
       unit="px"
       method="auto"
       mode="F"
       chamfer_steps="1"
       flexible="false"
       use_knot_distance="true"
       apply_no_radius="true"
       apply_with_radius="true"
       only_selected="false"
       hide_knots="false" /><inkscape:path-effect
       effect="fillet_chamfer"
       id="path-effect29-8"
       is_visible="true"
       lpeversion="1"
       nodesatellites_param="F,0,0,1,0,13.632259,0,1 @ F,0,0,1,0,17.783017,0,1 @ F,0,0,1,0,89.909824,0,1 @ F,0,0,1,0,72.732764,0,1"
       radius="38.132259"
       unit="px"
       method="auto"
       mode="F"
       chamfer_steps="1"
       flexible="false"
       use_knot_distance="true"
       apply_no_radius="true"
       apply_with_radius="true"
       only_selected="false"
       hide_knots="false" /></defs><g
     inkscape:label="Capa 1"
     inkscape:groupmode="layer"
     id="layer1-2"
     style="display:inline;fill:#ffeea3;fill-opacity:1"
     transform="matrix(0.98699761,0,0,0.98830088,0.00439356,75.438152)"><path
       style="display:inline;fill:#ffeea3;fill-opacity:1;stroke:#ffeea3;stroke-width:4.603;stroke-linecap:round;stroke-linejoin:round;stroke-opacity:1"
       d="M 933.6314,442.15999 C 916.0379,420.58515 895.82235,400.59406 873.5,382.69627 814.37305,335.28897 737.5536,300.66342 656.25,284.77316 c -3.7125,-0.72558 -7.9398,-1.5516 -9.39401,-1.8356 l -2.64402,-0.51635 2.2155,-4.0856 c 12.43863,-22.93812 15.95145,-50.67091 9.59475,-75.74795 -4.84731,-19.12252 -15.37861,-37.11368 -29.61083,-50.58565 C 618.34698,144.36837 610.56652,139.03063 600.5,134.22565 586.51195,127.54884 572.90936,124.5 557.10836,124.5 c -40.49286,0 -69.13873,20.52649 -78.35904,56.14894 -3.13067,12.09526 -4.0672,26.30433 -2.28059,34.60106 4.51731,20.97769 22.02779,35.72677 49.78127,41.93077 12.38413,2.76835 24.29114,2.87251 38.3162,0.33519 21.91404,-3.96453 36.01406,-14.82256 39.4803,-30.40266 0.63555,-2.85666 0.77046,-5.22723 0.57201,-10.05084 -0.64316,-15.63277 -7.96206,-28.27641 -19.53815,-33.75278 -6.93562,-3.28107 -16.03472,-4.48027 -28.83036,-3.79963 -15.00755,0.7983 -28.7509,1.59229 -28.8319,1.66571 -0.045,0.0408 -0.15754,5.08066 -0.25,11.19962 L 527,203.50077 l 5,0.0126 c 2.75,0.007 11.12973,-0.37642 18.62161,-0.85185 19.81521,-1.25748 24.90811,-0.40883 28.14123,4.68928 2.63293,4.15169 3.95663,10.60802 2.99594,14.61263 -1.94668,8.11467 -14.66694,13.55937 -33.60591,14.38448 -7.416,0.32308 -11.38799,-0.10762 -19.45701,-2.10985 -13.72212,-3.40497 -23.76126,-9.90017 -27.70088,-17.92214 -2.32202,-4.72817 -2.93362,-8.32646 -2.52826,-14.87478 1.58912,-25.67099 13.74991,-43.39886 34.64704,-50.50805 10.21434,-3.47492 25.83379,-4.49354 37.72669,-2.46034 31.6139,5.40466 56.8841,30.64631 64.01727,63.94493 0.99007,4.62178 1.13936,6.73153 1.12033,15.83234 -0.0242,11.57451 -0.64762,15.76571 -3.75576,25.25 -2.80638,8.5635 -10.96318,23.95229 -13.13829,24.78695 -0.36774,0.14112 -4.69958,-0.19631 -9.62631,-0.74985 -37.45511,-4.20824 -76.78136,-4.8152 -114.20769,-1.76267 -55.22418,4.50413 -110.54689,17.26629 -160.27612,36.97341 -25.75972,10.20829 -55.9847,25.31993 -77.37904,38.68736 -2.69784,1.68564 -5.00409,3.0648 -5.125,3.0648 -0.12091,0 -0.21956,-12.20625 -0.21923,-27.125 l 6.1e-4,-27.125 8.37439,-4.73731 c 51.95763,-29.39192 111.32636,-50.83773 172.45987,-62.29782 l 7.47791,-1.4018 -2.61214,-5.03154 c -3.14706,-6.06187 -5.3137,-12.09231 -6.8039,-18.93732 -1.48313,-6.81258 -1.60511,-23.06883 -0.23843,-31.77411 7.31376,-46.58606 37.97903,-79.793077 84.32343,-91.31274 13.73627,-3.414375 22.91996,-4.444697 39.51765,-4.433501 17.94692,0.01211 30.34894,1.690563 45.73468,6.189612 49.76459,14.551999 88.29704,53.203889 99.76364,100.072839 2.80655,11.4716 3.2521,15.54215 3.24687,29.66369 -0.004,11.4136 -0.14532,13.7627 -1.15618,19.25 -0.63325,3.4375 -1.27202,6.93658 -1.4195,7.77572 l -0.26813,1.52572 5.17431,1.41787 c 8.23382,2.25623 33.80077,10.81197 44.17431,14.7825 50.1805,19.20689 96.01225,44.88233 136.9362,76.71315 27.1274,21.09978 53.72455,46.97507 75.0726,73.03504 8.3289,10.16726 25.7412,33.79959 25.7412,34.93649 0,0.17243 -11.4721,0.31351 -25.4936,0.31351 h -25.4936 z"
       id="path15"
       transform="matrix(1.0131737,0,0,1.0118376,-0.00445144,-76.331159)" /><path
       d="M 548.5172,154.01736 C 276.05315,154.50292 49.91631,333.22409 29.408062,564.28134 H 134.384 c 210.95281,-73.59627 649.54251,-227.09266 821.05979,0 H 1067.6283 C 1047.12,333.22345 820.98199,154.50201 548.5172,154.01736 Z"
       style="display:inline;fill:#ffeea3;fill-opacity:1;stroke:#300404;stroke-width:45.801;stroke-linecap:round;stroke-linejoin:round;stroke-dasharray:none;stroke-opacity:1"
       id="path14-9-1-55"
       inkscape:label="FondoPan"
       sodipodi:nodetypes="cccccc" /><path
       d="M 549.82906,203.96325 C 303.59708,204.36284 99.232056,351.43242 80.698285,541.56934 h 94.869145 c 190.64287,-60.56235 587.00638,-186.87447 742.01047,0 h 101.3835 C 1000.4277,351.43189 796.0617,204.36208 549.82906,203.96325 Z"
       style="display:inline;fill:#ffeea3;fill-opacity:1;stroke:#b46b2c;stroke-width:37.2377;stroke-linecap:round;stroke-linejoin:round;stroke-dasharray:none;stroke-opacity:1"
       id="path14-9-1-5-1"
       inkscape:label="FondoPan"
       sodipodi:nodetypes="cccccc" /><path
       d="M 1025.7397,579.78675 887.44349,400.42168 c -5.37148,-6.96656 -20.06159,-9.94566 -32.93772,-6.67888 l -181.98132,46.17065 192.00253,135.02333 c 2.06257,1.45048 3.52299,3.10556 4.44569,4.84997 z"
       style="display:inline;fill:#ffeea3;fill-opacity:1;stroke-width:1.74691"
       id="path16-27-7"
       inkscape:label="Montaña3" /><path
       d="m 928.3728,497.14964 c -16.24678,3.42996 -33.25708,-38.83903 -51.09087,-38.74024 -33.34586,-12.933 -56.74275,-5.72728 -84.63299,-20.75902 0.10796,-2.40696 0.35478,-4.80793 0.74019,-7.19416 l -135.33572,34.33503 163.34158,114.86779 h 170.59384 z"
       style="display:inline;fill:#ffeea3;fill-opacity:1;stroke-width:1.74691"
       id="path44-1"
       sodipodi:nodetypes="cccccccc"
       inkscape:label="Fondo_Montaña3" /><path
       d="m 928.3728,497.14964 -55.39903,-71.84991 c -4.02859,-5.2249 -13.29724,-8.2063 -23.11271,-7.99255 -3.27184,0.0712 -6.60454,0.50329 -9.82506,1.31407 l -60.75236,15.29483 c 1.64099,5.93863 84.89915,23.38307 89.08603,26.58679 26.34222,25.07737 50.44535,39.24641 60.00313,36.64677 z"
       style="display:inline;fill:#ffeea3;fill-opacity:1;stroke-width:1.41942"
       id="path45-1"
       sodipodi:nodetypes="ccssccc"
       inkscape:label="Nieve3" /><path
       d="m 931.06442,579.78675 c -0.91428,-1.74441 -2.36141,-3.39949 -4.40523,-4.84997 L 580.40009,329.19832 c -8.04482,-5.7094 -21.77708,-6.06566 -30.79146,-0.79833 L 388.63944,422.45797 648.0614,572.69254 c 3.25103,1.88271 5.12265,4.42748 6.09088,7.09421 z"
       style="display:inline;fill:#ffeea3;fill-opacity:1;stroke-width:1.63452"
       id="path13-5-5"
       inkscape:label="Montaña2" /><path
       d="m 669.12326,416.77213 c -24.47251,18.29551 -60.56951,-10.78497 -98.61377,-10.78297 -45.98978,-9.8e-4 -88.48922,24.24109 -111.50774,-0.76646 l -68.05738,40.72518 226.89951,134.5595 c 3.87441,-0.50191 7.88343,-0.85663 12.11497,-0.85663 h 263.27772 z"
       style="display:inline;fill:#ffeea3;fill-opacity:1;stroke-width:1.62922"
       id="path40-2"
       sodipodi:nodetypes="cccccscc"
       inkscape:label="Fondo_Montaña2" /><path
       d="M 694.93892,435.39983 579.82998,351.87796 c -3.96208,-2.8795 -9.32768,-4.40654 -14.80967,-4.55214 -5.48194,-0.14562 -11.08256,1.09165 -15.52212,3.74818 l -96.17414,57.51983 c 23.01854,25.00754 78.73192,-0.10963 124.72172,-0.10766 38.04423,-9.8e-4 92.42067,45.20922 116.89315,26.91371 z"
       style="display:inline;fill:#ffeea3;fill-opacity:1;stroke-width:1.41942"
       id="path41-7"
       sodipodi:nodetypes="ccscccc"
       inkscape:label="Nieve2" /><path
       d="m 663.23297,579.78675 c -1.00184,-2.66673 -2.93847,-5.2115 -6.3024,-7.09421 L 310.81784,378.98377 c -8.04143,-4.50056 -19.45369,-3.73602 -25.58716,1.71355 L 61.157464,579.78675 Z"
       style="display:inline;fill:#ffeea3;fill-opacity:1;stroke-width:1.43558"
       id="path10-3-6"
       inkscape:label="Montaña1"
       sodipodi:nodetypes="cccccc" /><path
       d="m 377.58185,441.41517 c -10.36925,20.64485 -36.9257,8.51117 -69.31046,8.65514 -27.31369,-0.10993 -54.56447,15.99986 -67.91875,-0.0331 L 94.293578,579.81439 H 624.86612 Z"
       style="display:inline;fill:#ffeea3;fill-opacity:1;stroke-width:1.43558"
       id="path36-1"
       sodipodi:nodetypes="cccccc"
       inkscape:label="Fondo_Montaña1" /><path
       d="m 392.13525,449.19369 -78.27767,-43.44426 c -4.02067,-2.25028 -8.88451,-3.18187 -13.50944,-2.87212 -4.62491,0.30976 -9.01225,1.86064 -12.07895,4.58542 l -59.1358,52.52243 c 13.35429,16.03312 50.44796,-8.90956 77.76163,-8.79958 32.38476,-0.14395 74.87099,18.653 85.24023,-1.99189 z"
       style="display:inline;fill:#ffeea3;fill-opacity:1;stroke-width:1.41942"
       id="path37-4"
       sodipodi:nodetypes="ccscccc"
       inkscape:label="Nieve1" /><rect
       style="fill:#ffeea3;fill-opacity:1;stroke-width:1.74292"
       id="rect27-2"
       width="932.20349"
       height="26.004858"
       x="59.392086"
       y="553.75629"
       rx="40.684761"
       ry="26.004858"
       inkscape:label="Divisor" /><rect
       style="fill:#ffeea3;fill-opacity:1;stroke-width:1.44194"
       id="rect28-3"
       width="1083.4146"
       height="156.57445"
       x="6.4021697"
       y="558.70691"
       rx="58.591934"
       ry="56.776852"
       inkscape:label="Borde_Carne" /><rect
       style="display:inline;fill:#ffeea3;fill-opacity:1;stroke-width:1.17774"
       id="rect28-5-2"
       width="992.75592"
       height="113.99232"
       x="52.245079"
       y="581.8988"
       rx="53.689045"
       ry="41.335766"
       inkscape:label="Fondo_Carne" /><path
       style="display:inline;fill:#ffeea3;fill-opacity:1;stroke-width:1.00227"
       id="rect28-1-2"
       width="792.15747"
       height="111.52265"
       x="177.79395"
       y="566.56458"
       rx="0"
       ry="0"
       inkscape:path-effect="#path-effect30-4"
       sodipodi:type="rect"
       d="m 218.23417,566.56458 716.93388,0 a 34.78337,34.78337 45 0 1 34.78337,34.78337 92.957494,92.957494 144.28608 0 1 -106.73928,76.73928 H 268.73417 A 90.940224,90.940224 45 0 1 177.79395,587.147 32.086197,32.086197 153.02576 0 1 218.23417,566.56458 Z"
       transform="matrix(1.3679389,0,0,1.7253752,-237.14018,-284.2559)"
       inkscape:label="Borde_PanBajo" /><path
       style="display:inline;fill:#ffeea3;fill-opacity:1;stroke-width:0.837666"
       id="rect28-5-3-1"
       width="705.09784"
       height="81.192841"
       x="191.51477"
       y="583.08331"
       rx="0"
       ry="0"
       inkscape:path-effect="#path-effect29-8"
       sodipodi:type="rect"
       d="m 205.14703,583.08331 h 673.68256 a 17.783017,17.783017 45 0 1 17.78302,17.78302 77.796472,77.796472 144.8062 0 1 -89.90982,63.40982 H 264.24753 a 72.732764,72.732764 45 0 1 -72.73276,-72.73276 11.344853,11.344853 148.17658 0 1 13.63226,-8.46008 z"
       transform="matrix(1.3979404,0,0,1.3539551,-209.45116,-64.109313)"
       inkscape:label="Fondo_PanBajo" /><path
       id="rect45-6"
       style="fill:#ffeea3;fill-opacity:1;stroke-width:1.41942"
       d="m 896.56501,595.59146 h 109.33849 c 11.7954,0 19.7552,11.50406 19.5349,16.90083 l -0.2508,6.14755 c -0.2204,5.3968 -15.485,10.71069 -19.4095,-0.41267 l -0.3763,-1.06641 c -3.9245,-11.12338 -130.17765,-2.09006 -130.15952,-7.49132 l 0.0312,-9.34679 c 0.0181,-5.40124 9.49594,-4.73119 21.29133,-4.73119 z"
       sodipodi:nodetypes="sssssssss"
       inkscape:label="BrilloCarne" /><path
       id="path50-8-8"
       style="display:inline;fill:#ffeea3;fill-opacity:1;fill-rule:evenodd;stroke:#b46b2c;stroke-width:23.6897;stroke-dasharray:none"
       d="m 532.93192,98.776852 c 33.71705,0.47488 62.27007,-11.343373 69.2897,21.146238 8.13881,37.66962 -45.4474,38.04228 -53.36419,37.9332 -6.0276,-0.0832 -60.76298,-5.23304 -58.80707,-47.80834 2.21147,-48.137568 33.10831,-73.307646 80.4926,-70.82047 52.94419,2.779008 92.85068,50.724292 89.82903,102.91736 -2.00643,34.65776 -22.23373,66.41118 -52.25941,83.62986"
       sodipodi:nodetypes="csssssc"
       inkscape:label="ColaFondo" /><circle
       style="fill:#ffeea3;fill-opacity:1;stroke:#300404;stroke-width:19.7097;stroke-dasharray:none;stroke-opacity:1"
       id="path51-5"
       cx="554.49915"
       cy="649.31207"
       inkscape:label="Nariz"
       r="166.83289" /><rect
       style="fill:#ffeea3;fill-opacity:1;stroke:#300404;stroke-width:0;stroke-dasharray:none;stroke-opacity:1"
       id="rect51-7"
       width="57.459408"
       height="178.42657"
       x="484.18701"
       y="562.36694"
       rx="7560.4482"
       inkscape:label="HuecoNariz_Izquierdo" /><rect
       style="display:inline;fill:#ffeea3;fill-opacity:1;stroke:#300404;stroke-width:0;stroke-dasharray:none;stroke-opacity:1"
       id="rect51-6-6"
       width="57.459408"
       height="178.42657"
       x="573.40027"
       y="560.85486"
       rx="7560.4482"
       inkscape:label="HuecoNariz_Derecho" /><path
       style="fill:#ffeea3;fill-opacity:1;stroke:#ffeea3;stroke-width:13.1476;stroke-linecap:round;stroke-linejoin:round;stroke-opacity:1"
       d="M 532.37121,865.50861 C 157.5718,864.8245 133.49117,864.63245 125.44539,862.26344 102.83171,855.60503 81.586845,841.05679 66.331737,821.78312 46.671812,796.94428 35.715179,768.5283 32.007785,732.76404 c -1.48996,-14.37323 -1.396858,-15.902 1.428497,-23.45634 1.662285,-4.44457 5.621077,-11.04516 8.797318,-14.66799 l 5.774981,-6.58694 -5.263471,-7.19894 c -9.181077,-12.55712 -10.913631,-19.22618 -11.698953,-45.03247 -0.819359,-26.92473 0.845002,-41.10191 6.034087,-51.39895 l 3.760832,-7.46286 -3.981463,-4.5555 c -2.189804,-2.50552 -4.518417,-4.55549 -5.174697,-4.55549 -0.656279,0 -4.629918,3.26327 -8.830308,7.25169 l -7.637074,7.2517 -3.680081,-5.43737 C 7.0847546,570.33565 6.7632561,562.17819 10.059418,539.41208 17.046728,491.15173 35.092192,438.55927 59.377951,395.67609 99.875263,324.16694 160.89141,262.42436 236.1397,216.80993 295.2164,180.99847 364.67607,154.77455 432.91573,142.51875 l 18.13255,-3.2566 -1.02884,-5.72402 c -1.73814,-9.67044 -0.89931,-30.88671 1.69736,-42.930194 1.42492,-6.608824 5.50479,-17.765163 9.65168,-26.392323 6.25405,-13.010851 8.77623,-16.52846 19.49506,-27.189123 14.08666,-14.010199 25.29266,-20.649893 45.09378,-26.718598 11.77481,-3.6087763 14.75823,-3.9314964 36.34539,-3.9314964 21.46586,0 24.6104,0.3355325 36.04368,3.8459754 22.92617,7.039195 39.43977,16.721642 56.40066,33.069473 25.56168,24.637743 40.03926,56.366438 42.69173,93.562086 l 0.98097,13.75608 4.98858,1.33968 c 80.49282,21.61641 153.7248,58.60874 216.64703,109.43687 18.58275,15.01102 55.26592,52.02784 70.42095,71.06145 50.25549,63.11732 81.90939,134.70046 92.31139,208.75646 3.3859,24.10542 2.9653,30.0162 -2.6092,36.6676 l -3.674,4.38374 -7.5864,-7.20362 c -4.1726,-3.962 -8.1059,-7.15714 -8.7408,-7.10031 -0.6348,0.0569 -2.8784,2.19234 -4.9855,4.74562 l -3.8313,4.64229 3.4605,7.06019 c 4.9511,10.10109 6.34,19.62694 6.34,43.48335 0,32.34195 -3.5096,45.09029 -15.8142,57.44409 l -5.7397,5.76266 5.235,5.81774 c 12.7385,14.15628 17.5399,33.86064 13.3337,54.71946 -13.704,67.95989 -63.05551,116.5459 -116.74081,114.93019 -5.8794,-0.17694 -189.9581,-0.64893 -409.06378,-1.04886 z M 936.25867,817.6401 c 35.00578,-6.72449 63.93933,-30.67009 76.94593,-63.681 5.8701,-14.89818 5.9859,-24.78953 0.377,-32.17857 -7.561,-9.96046 2.0895,-9.40033 -161.96161,-9.40033 H 703.27575 l -2.428,4.51757 c -33.51468,62.3579 -99.4158,97.89278 -166.93196,90.01222 -38.85704,-4.53543 -76.84347,-23.48865 -103.11459,-51.44871 -9.63237,-10.25164 -21.02279,-26.13391 -26.52595,-36.98656 l -3.07748,-6.06904 -153.55459,-0.37049 c -84.45503,-0.20376 -155.609934,0.13466 -158.122017,0.75204 -5.914785,1.45371 -10.398324,7.2491 -10.398324,13.44085 0,9.90307 4.596744,27.25218 10.359612,39.09936 8.289884,17.04218 23.997859,32.87947 40.969189,41.30647 24.16689,11.9999 -17.562,10.7883 400.49426,11.62847 204.99512,0.41199 377.63273,0.90527 383.63916,1.09618 6.00642,0.19091 15.75955,-0.58239 21.67361,-1.71846 z M 568.00395,789.66702 c 51.62844,-5.945 95.06826,-36.23853 118.00851,-82.29534 C 714.66841,649.8396 703.68098,579.75936 658.90713,534.48783 609.3252,484.35476 534.4467,475.1173 473.44501,511.60812 c -13.29544,7.95327 -37.49797,31.08272 -45.50834,43.49066 -11.61998,17.99914 -19.55053,37.38662 -23.26669,56.87911 -2.70842,14.20646 -2.57357,43.36259 0.26442,57.1747 14.42744,70.21621 73.28,119.54009 145.25318,121.73557 3.13568,0.0956 11.15305,-0.45386 17.81637,-1.22114 z M 389.17437,678.42912 c -2.95808,-11.83301 -4.01506,-21.53815 -4.09497,-37.59923 -0.10157,-20.4137 1.91884,-33.9086 7.78571,-52.00304 2.25596,-6.95767 4.10172,-12.91424 4.10172,-13.2368 0,-1.38085 -280.3716,-0.44748 -286.42694,0.95353 -14.408451,3.33365 -27.395776,12.4934 -33.323586,23.50262 -2.814748,5.2276 -3.082048,7.83386 -3.082048,30.05113 0,23.75621 0.0888,24.47823 3.783965,30.76665 4.791956,8.15491 8.599676,11.70301 18.349011,17.09787 l 7.798518,4.31537 143.04178,0.0259 143.04178,0.0259 z m 606.04685,0.38322 c 10.35818,-4.84177 19.73728,-14.88731 22.44428,-24.0391 2.8934,-9.78232 2.9271,-39.45585 0.055,-49.16354 -2.6824,-9.06877 -9.8063,-17.42404 -19.26146,-22.59075 -15.01242,-8.20344 -10.62585,-7.97995 -156.98284,-7.99837 l -134.87826,-0.017 4.04456,11.8058 c 8.23674,24.04253 10.76615,57.01874 6.28399,81.92512 -1.1331,6.29643 -2.07281,11.93102 -2.08825,12.5213 -0.0154,0.59029 61.38498,1.06697 136.44533,1.05927 l 136.47358,-0.014 z M 109.76699,549.22203 c 1.56784,-0.62377 44.42245,-38.22279 95.23247,-83.55338 50.81001,-45.33057 93.58058,-83.06334 95.0457,-83.85057 1.4651,-0.78724 5.67648,-1.43135 9.35861,-1.43135 6.14554,0 13.79006,3.98389 93.18534,48.56315 47.56982,26.70974 88.17053,49.33166 90.22378,50.27092 3.06902,1.40393 5.84238,1.16977 15.58819,-1.3161 18.88824,-4.81784 33.21769,-6.32846 51.76366,-5.45698 32.90622,1.54626 64.48625,12.84247 91.93246,32.88431 10.13207,7.39866 29.25262,26.94505 35.63272,36.4263 l 4.98859,7.41335 74.70997,0.0369 c 41.09048,0.0203 74.44271,-0.23119 74.11608,-0.55884 -0.55604,-0.55781 -90.92519,-66.60076 -213.67762,-156.1584 -56.03493,-40.88192 -60.23152,-43.31187 -71.49992,-41.40048 -3.74197,0.63473 -28.13579,14.50892 -73.13781,41.59774 -37.13775,22.35496 -68.16069,40.64536 -68.93987,40.64536 -1.71406,0 -17.25679,-9.00513 -17.2893,-10.01705 -0.0126,-0.39352 34.78897,-21.13067 77.3369,-46.08256 53.77989,-31.53879 79.14891,-45.6543 83.22926,-46.30938 3.49247,-0.5607 8.09316,-0.20946 11.36052,0.86733 3.02011,0.99529 35.2772,23.02858 71.68241,48.96285 36.40521,25.93428 66.92966,47.43769 67.83213,47.78538 0.90246,0.34769 31.08626,-6.896 67.07513,-16.0971 68.47323,-17.50623 76.94195,-18.92453 85.73622,-14.35867 5.82091,3.02215 5.9588,3.1932 68.06725,84.43914 l 54.16176,70.85063 10.08505,0.082 c 8.67863,0.0705 10.50403,-0.36704 13.08913,-3.13779 5.7658,-6.17957 6.3246,-10.21107 3.8778,-27.97487 C 998.24516,433.12892 945.1033,352.04879 857.88849,289.4487 822.38737,263.9671 769.37055,237.92044 722.68199,223.02302 705.98013,217.69379 666.17682,207.69009 656.5987,206.41443 l -6.6772,-0.88932 4.5275,-9.36058 c 9.23816,-19.09988 12.52135,-43.62789 8.60873,-64.31382 C 658.69176,108.76794 649.68648,91.790048 632.82309,74.8485 613.08152,55.01543 590.03748,45.531233 561.59005,45.531233 c -26.197,0 -44.43771,6.742574 -59.97006,22.167565 -14.21665,14.118399 -22.10453,34.211752 -22.41967,57.111322 -0.23222,16.87357 2.9487,25.12822 13.84841,35.93721 14.63595,14.51413 33.03998,21.35743 57.13885,21.24627 33.8904,-0.15629 56.20628,-13.39011 59.5894,-35.33788 1.05741,-6.85981 -1.2787,-19.94953 -4.79558,-26.87075 -3.68555,-7.25316 -12.98131,-14.86327 -21.00239,-17.19393 -6.83616,-1.98636 -32.69845,-2.23489 -46.26289,-0.44456 l -6.77022,0.89358 v 11.42 11.42001 l 23.62811,-0.46399 23.62811,-0.46399 3.38924,3.94091 c 1.86408,2.16751 3.82072,6.25008 4.34808,9.0724 4.48382,23.99638 -56.21683,27.87766 -76.87897,4.91573 -6.24018,-6.93475 -7.48157,-13.07784 -5.31474,-26.30036 5.5718,-34.000539 29.87051,-50.707514 67.61667,-46.490973 25.31071,2.827409 47.29258,18.479091 59.96962,42.699983 12.1141,23.14532 12.45355,49.11552 0.96319,73.69558 -7.1557,15.30747 -6.60429,15.04521 -26.52056,12.61359 -21.82943,-2.66517 -87.89728,-3.03736 -111.17413,-0.62629 -48.22377,4.99516 -84.20377,12.46819 -125.8433,26.13763 -142.2688,46.70402 -245.78077,144.77927 -276.80843,262.26972 -10.330305,39.11711 -10.991691,59.87988 -2.067168,64.89425 2.189107,1.22999 14.279128,-0.32173 19.885368,-2.55223 z m 838.522,-3.19632 c -2.69052,-3.34498 -25.00005,-32.36048 -49.57671,-64.47889 -28.60522,-37.38323 -46.22325,-59.19586 -48.96004,-60.61678 -10.29131,-5.34311 -16.90757,-4.49691 -69.3772,8.87305 -27.04525,6.89149 -49.59259,12.92 -50.10519,13.3967 -0.51261,0.4767 32.33068,24.53199 72.9851,53.4562 l 73.91711,52.58949 30.34984,0.10606 c 16.69239,0.0584 33.23607,0.62171 36.76371,1.2519 3.52765,0.63021 6.9722,1.22642 7.65456,1.32493 0.68239,0.0986 -0.96065,-2.55768 -3.65118,-5.90266 z m -530.09555,-6.59004 c 10.13549,-13.72665 28.06419,-30.48282 42.97383,-40.16334 l 12.64656,-8.21114 -38.77983,-21.87053 c -93.87068,-52.93994 -113.21809,-63.51879 -118.33751,-64.705 -11.34369,-2.62845 -11.24989,-2.69914 -91.55161,69.00319 -41.50807,37.06303 -77.38107,69.27043 -79.71775,71.57198 l -4.24851,4.18465 h 134.88572 134.88575 z"
       id="path1" /><path
       id="path50-4"
       style="display:inline;fill:#ffeea3;fill-opacity:1;fill-rule:evenodd;stroke:#300404;stroke-width:85.196;stroke-dasharray:none;stroke-opacity:1"
       d="m 509.10884,110.5691 c 38.21343,0.46299 87.73733,-16.348241 95.69306,15.32985 9.22417,36.72872 -51.50811,37.09205 -60.48063,36.98569 -6.83141,-0.0809 -68.86615,-5.10233 -66.64933,-46.61417 2.50636,-46.935223 37.52347,-71.476633 91.22675,-69.051561 60.00462,2.709571 105.23288,49.457304 101.8083,100.346721 -2.27401,33.79212 -25.19873,64.75236 -59.22852,81.54095"
       sodipodi:nodetypes="csssssc"
       inkscape:label="Cola" /><path
       style="fill:#ffeea3;fill-opacity:1;stroke:#ffeea3;stroke-width:6.50963;stroke-linecap:round;stroke-linejoin:round;stroke-opacity:1"
       d="m 33.952517,604.76229 c 0.249899,-1.85239 1.694275,-9.57283 3.209723,-17.15655 27.727183,-138.75441 133.37245,-258.71899 282.33549,-320.60364 36.09622,-14.99568 80.58951,-27.98846 118.72082,-34.66846 l 2.64076,-0.46261 -2.1267,-3.7683 c -7.40891,-13.12787 -10.29003,-29.8262 -8.19063,-47.47104 6.97978,-58.66297 48.89589,-95.717112 113.13922,-100.015902 63.53241,-4.251218 121.67349,27.855732 147.51655,81.462312 11.26476,23.36664 15.189,49.5393 11.00361,73.38846 -1.8172,10.35477 -2.58464,9.00457 6.67319,11.74055 31.97431,9.44944 61.82369,21.31721 92.27743,36.68851 21.76525,10.98582 34.49006,18.35318 54.00712,31.26889 86.64533,57.33869 149.3879,136.40895 179.2952,225.95356 2.8892,8.65069 6.3787,20.0242 7.7543,25.27446 2.5673,9.79876 7.0594,31.39489 7.9056,38.00699 l 0.4751,3.71231 h -23.3162 -23.3162 l -0.8682,-7.24784 C 993.27601,518.95049 947.16289,441.5553 872.65816,381.95228 814.39991,335.3463 738.34412,301.00385 658.38935,285.20073 c -7.42938,-1.46842 -13.60716,-2.72541 -13.72841,-2.79331 -0.12125,-0.0679 1.35288,-3.25927 3.27583,-7.09192 4.17173,-8.31471 7.31688,-17.42309 9.42626,-27.29848 2.25364,-10.55083 2.24523,-29.59543 -0.0177,-40.12763 -4.63581,-21.57582 -13.80784,-38.56746 -29.03253,-53.78423 -14.93402,-14.92625 -31.10405,-23.71824 -51.31363,-27.90032 -7.56251,-1.56495 -23.81817,-2.14588 -32.24312,-1.15227 -33.25693,3.9222 -56.59911,22.80252 -65.34618,52.85522 -4.01118,13.7814 -5.00752,29.5915 -2.4861,39.45013 3.74578,14.64588 13.38214,25.41471 29.75774,33.25489 13.21608,6.32749 27.53002,9.26947 42.09838,8.6526 35.40966,-1.49936 56.15,-16.36593 56.15,-40.24806 0,-13.77122 -6.62601,-27.57104 -16.18286,-33.70366 -9.04375,-5.80335 -17.77575,-6.9126 -42.41742,-5.38836 -9.72753,0.6017 -18.02281,1.09401 -18.43395,1.09401 -0.49443,0 -0.74751,3.86687 -0.74751,11.4214 v 11.4214 l 12.9047,-0.63802 c 7.09758,-0.35091 17.20037,-0.63803 22.45064,-0.63803 11.49153,0 14.16916,0.96951 16.77888,6.07528 3.39521,6.64255 3.46125,13.64916 0.1681,17.83573 -2.00842,2.55328 -10.26726,6.51177 -16.76768,8.03678 -8.45866,1.98442 -26.10484,1.82085 -34.12043,-0.31627 -8.39525,-2.23835 -18.25139,-7.21659 -22.52061,-11.37494 -7.78073,-7.57868 -9.11412,-14.64112 -6.02388,-31.90643 3.58651,-20.0381 15.71602,-34.29561 34.20134,-40.20164 7.3365,-2.34399 13.14572,-3.13094 22.98097,-3.11312 15.60736,0.0283 28.2292,3.55113 40.58618,11.32789 16.33605,10.28095 28.10547,25.40194 34.30963,44.07995 3.30262,9.9427 4.22677,17.0825 3.73054,28.82129 -0.66488,15.72859 -5.29811,29.78775 -14.08354,42.73536 -2.71325,3.99867 -2.86879,4.10563 -5.38411,3.70241 -4.32007,-0.69255 -21.00777,-2.38505 -32.99574,-3.3465 -14.85947,-1.19176 -64.97462,-1.19542 -79.90307,-0.006 -43.46942,3.46387 -81.92431,10.21645 -119.14749,20.92199 -108.24549,31.13187 -198.35782,93.33863 -251.25281,173.44601 -26.53379,40.18437 -43.340519,84.307 -49.157232,129.05227 l -1.222222,9.40198 -24.59106,0.18599 -24.59106,0.18599 z"
       id="path16"
       transform="matrix(1.0131737,0,0,1.0118376,-0.00445144,-76.331159)" /></g><g
     inkscape:label="Capa 1"
     inkscape:groupmode="layer"
     id="layer1"
     style="display:inline"
     transform="matrix(0.94395615,0,0,0.94395615,24.310813,99.00552)"><path
       id="path50"
       style="display:inline;fill:none;fill-rule:evenodd;stroke:#300404;stroke-width:80.9452;stroke-dasharray:none;stroke-opacity:1"
       d="m 517.77852,109.99524 c 33.72275,0.4736 77.42682,-16.722766 84.44762,15.68104 8.1402,37.57014 -45.4551,37.9418 -53.3732,37.833 -6.02862,-0.0828 -60.7733,-5.21922 -58.81701,-47.68206 2.21183,-48.010468 33.11389,-73.114104 80.5062,-70.633474 52.95313,2.771645 92.86638,50.590332 89.84424,102.645584 -2.00678,34.56627 -22.2375,66.23579 -52.26826,83.40899"
       sodipodi:nodetypes="csssssc"
       inkscape:label="Cola" /><path
       d="M 548.5172,154.01736 C 276.05315,154.50292 49.91631,333.22409 29.408062,564.28134 H 134.384 c 210.95281,-73.59627 649.54251,-227.09266 821.05979,0 H 1067.6283 C 1047.12,333.22345 820.98199,154.50201 548.5172,154.01736 Z"
       style="display:inline;fill:#300404;fill-opacity:1;stroke:#300404;stroke-width:45.801;stroke-linecap:round;stroke-linejoin:round;stroke-dasharray:none;stroke-opacity:1"
       id="path14-9-1"
       inkscape:label="FondoPan"
       sodipodi:nodetypes="cccccc" /><path
       d="M 549.82906,203.96325 C 303.59708,204.36284 99.232056,351.43242 80.698285,541.56934 h 94.869145 c 190.64287,-60.56235 587.00638,-186.87447 742.01047,0 h 101.3835 C 1000.4277,351.43189 796.0617,204.36208 549.82906,203.96325 Z"
       style="display:inline;fill:#b46b2c;fill-opacity:1;stroke:#b46b2c;stroke-width:37.2377;stroke-linecap:round;stroke-linejoin:round;stroke-dasharray:none;stroke-opacity:1"
       id="path14-9-1-5"
       inkscape:label="FondoPan"
       sodipodi:nodetypes="cccccc" /><path
       d="M 1025.7397,579.78675 887.44349,400.42168 c -5.37148,-6.96656 -20.06159,-9.94566 -32.93772,-6.67888 l -181.98132,46.17065 192.00253,135.02333 c 2.06257,1.45048 3.52299,3.10556 4.44569,4.84997 z"
       style="display:inline;fill:#300404;fill-opacity:1;stroke-width:1.74691"
       id="path16-27"
       inkscape:label="Montaña3" /><path
       d="m 928.3728,497.14964 c -16.24678,3.42996 -33.25708,-38.83903 -51.09087,-38.74024 -33.34586,-12.933 -56.74275,-5.72728 -84.63299,-20.75902 0.10796,-2.40696 0.35478,-4.80793 0.74019,-7.19416 l -135.33572,34.33503 163.34158,114.86779 h 170.59384 z"
       style="display:inline;fill:#6c7243;stroke-width:1.74691"
       id="path44"
       sodipodi:nodetypes="cccccccc"
       inkscape:label="Fondo_Montaña3" /><path
       d="m 928.3728,497.14964 -55.39903,-71.84991 c -4.02859,-5.2249 -13.29724,-8.2063 -23.11271,-7.99255 -3.27184,0.0712 -6.60454,0.50329 -9.82506,1.31407 l -60.75236,15.29483 c 1.64099,5.93863 84.89915,23.38307 89.08603,26.58679 26.34222,25.07737 50.44535,39.24641 60.00313,36.64677 z"
       style="display:inline;fill:#ffffff;stroke-width:1.41942"
       id="path45"
       sodipodi:nodetypes="ccssccc"
       inkscape:label="Nieve3" /><path
       d="m 931.06442,579.78675 c -0.91428,-1.74441 -2.36141,-3.39949 -4.40523,-4.84997 L 580.40009,329.19832 c -8.04482,-5.7094 -21.77708,-6.06566 -30.79146,-0.79833 L 388.63944,422.45797 648.0614,572.69254 c 3.25103,1.88271 5.12265,4.42748 6.09088,7.09421 z"
       style="display:inline;fill:#300404;fill-opacity:1;stroke-width:1.63452"
       id="path13-5"
       inkscape:label="Montaña2" /><path
       d="m 669.12326,416.77213 c -24.47251,18.29551 -60.56951,-10.78497 -98.61377,-10.78297 -45.98978,-9.8e-4 -88.48922,24.24109 -111.50774,-0.76646 l -68.05738,40.72518 226.89951,134.5595 c 3.87441,-0.50191 7.88343,-0.85663 12.11497,-0.85663 h 263.27772 z"
       style="display:inline;fill:#6c7243;stroke-width:1.62922"
       id="path40"
       sodipodi:nodetypes="cccccscc"
       inkscape:label="Fondo_Montaña2" /><path
       d="M 694.93892,435.39983 579.82998,351.87796 c -3.96208,-2.8795 -9.32768,-4.40654 -14.80967,-4.55214 -5.48194,-0.14562 -11.08256,1.09165 -15.52212,3.74818 l -96.17414,57.51983 c 23.01854,25.00754 78.73192,-0.10963 124.72172,-0.10766 38.04423,-9.8e-4 92.42067,45.20922 116.89315,26.91371 z"
       style="display:inline;fill:#ffffff;stroke-width:1.41942"
       id="path41"
       sodipodi:nodetypes="ccscccc"
       inkscape:label="Nieve2" /><path
       d="m 663.23297,579.78675 c -1.00184,-2.66673 -2.93847,-5.2115 -6.3024,-7.09421 L 310.81784,378.98377 c -8.04143,-4.50056 -19.45369,-3.73602 -25.58716,1.71355 L 61.157464,579.78675 Z"
       style="display:inline;fill:#300404;fill-opacity:1;stroke-width:1.43558"
       id="path10-3"
       inkscape:label="Montaña1"
       sodipodi:nodetypes="cccccc" /><path
       d="m 377.58185,441.41517 c -10.36925,20.64485 -36.9257,8.51117 -69.31046,8.65514 -27.31369,-0.10993 -54.56447,15.99986 -67.91875,-0.0331 L 94.293578,579.81439 H 624.86612 Z"
       style="display:inline;fill:#6c7243;stroke-width:1.43558"
       id="path36"
       sodipodi:nodetypes="cccccc"
       inkscape:label="Fondo_Montaña1" /><path
       d="m 392.13525,449.19369 -78.27767,-43.44426 c -4.02067,-2.25028 -8.88451,-3.18187 -13.50944,-2.87212 -4.62491,0.30976 -9.01225,1.86064 -12.07895,4.58542 l -59.1358,52.52243 c 13.35429,16.03312 50.44796,-8.90956 77.76163,-8.79958 32.38476,-0.14395 74.87099,18.653 85.24023,-1.99189 z"
       style="display:inline;fill:#ffffff;stroke-width:1.41942"
       id="path37"
       sodipodi:nodetypes="ccscccc"
       inkscape:label="Nieve1" /><rect
       style="fill:#300404;fill-opacity:1;stroke-width:1.74292"
       id="rect27"
       width="932.20349"
       height="26.004858"
       x="59.392086"
       y="553.75629"
       rx="40.684761"
       ry="26.004858"
       inkscape:label="Divisor" /><rect
       style="fill:#300404;fill-opacity:1;stroke-width:1.44194"
       id="rect28"
       width="1083.4146"
       height="156.57445"
       x="6.4021697"
       y="558.70691"
       rx="58.591934"
       ry="56.776852"
       inkscape:label="Borde_Carne" /><rect
       style="display:inline;fill:#944418;fill-opacity:1;stroke-width:1.17774"
       id="rect28-5"
       width="992.75592"
       height="113.99232"
       x="52.245079"
       y="581.8988"
       rx="53.689045"
       ry="41.335766"
       inkscape:label="Fondo_Carne" /><path
       style="display:inline;fill:#300404;fill-opacity:1;stroke-width:1.00227"
       id="rect28-1"
       width="792.15747"
       height="111.52265"
       x="177.79395"
       y="566.56458"
       rx="0"
       ry="0"
       inkscape:path-effect="#path-effect30"
       sodipodi:type="rect"
       d="m 218.23417,566.56458 716.93388,0 a 34.78337,34.78337 45 0 1 34.78337,34.78337 92.957494,92.957494 144.28608 0 1 -106.73928,76.73928 H 268.73417 A 90.940224,90.940224 45 0 1 177.79395,587.147 32.086197,32.086197 153.02576 0 1 218.23417,566.56458 Z"
       transform="matrix(1.3679389,0,0,1.7253752,-237.14018,-284.2559)"
       inkscape:label="Borde_PanBajo" /><path
       style="display:inline;fill:#b46b2c;fill-opacity:1;stroke-width:0.837666"
       id="rect28-5-3"
       width="705.09784"
       height="81.192841"
       x="191.51477"
       y="583.08331"
       rx="0"
       ry="0"
       inkscape:path-effect="#path-effect29"
       sodipodi:type="rect"
       d="m 205.14703,583.08331 h 673.68256 a 17.783017,17.783017 45 0 1 17.78302,17.78302 77.796472,77.796472 144.8062 0 1 -89.90982,63.40982 H 264.24753 a 72.732764,72.732764 45 0 1 -72.73276,-72.73276 11.344853,11.344853 148.17658 0 1 13.63226,-8.46008 z"
       transform="matrix(1.3979404,0,0,1.3539551,-209.45116,-64.109313)"
       inkscape:label="Fondo_PanBajo" /><path
       id="rect45"
       style="fill:#ffffff;stroke-width:1.41942"
       d="m 896.56501,595.59146 h 109.33849 c 11.7954,0 19.7552,11.50406 19.5349,16.90083 l -0.2508,6.14755 c -0.2204,5.3968 -15.485,10.71069 -19.4095,-0.41267 l -0.3763,-1.06641 c -3.9245,-11.12338 -130.17765,-2.09006 -130.15952,-7.49132 l 0.0312,-9.34679 c 0.0181,-5.40124 9.49594,-4.73119 21.29133,-4.73119 z"
       sodipodi:nodetypes="sssssssss"
       inkscape:label="BrilloCarne" /><path
       id="path50-8"
       style="display:inline;fill:none;fill-rule:evenodd;stroke:#b46b2c;stroke-width:23.6897;stroke-dasharray:none"
       d="m 532.93192,98.776852 c 33.71705,0.47488 62.27007,-11.343373 69.2897,21.146238 8.13881,37.66962 -45.4474,38.04228 -53.36419,37.9332 -6.0276,-0.0832 -60.76298,-5.23304 -58.80707,-47.80834 2.21147,-48.137568 33.10831,-73.307646 80.4926,-70.82047 52.94419,2.779008 92.85068,50.724292 89.82903,102.91736 -2.00643,34.65776 -22.23373,66.41118 -52.25941,83.62986"
       sodipodi:nodetypes="csssssc"
       inkscape:label="ColaFondo" /><circle
       style="fill:#b46b2c;fill-opacity:1;stroke:#300404;stroke-width:19.7097;stroke-dasharray:none;stroke-opacity:1"
       id="path51"
       cx="554.49915"
       cy="649.31207"
       inkscape:label="Nariz"
       r="166.83289" /><rect
       style="fill:#300404;fill-opacity:1;stroke:#300404;stroke-width:0;stroke-dasharray:none;stroke-opacity:1"
       id="rect51"
       width="57.459408"
       height="178.42657"
       x="484.18701"
       y="562.36694"
       rx="7560.4482"
       inkscape:label="HuecoNariz_Izquierdo" /><rect
       style="display:inline;fill:#300404;fill-opacity:1;stroke:#300404;stroke-width:0;stroke-dasharray:none;stroke-opacity:1"
       id="rect51-6"
       width="57.459408"
       height="178.42657"
       x="573.40027"
       y="560.85486"
       rx="7560.4482"
       inkscape:label="HuecoNariz_Derecho" /></g></svg>
