<?xml version="1.0" encoding="UTF-8" standalone="no"?>
<!-- Created with Inkscape (http://www.inkscape.org/) -->

<svg
   width="1080"
   height="1080"
   viewBox="0 0 1080 1080"
   version="1.1"
   id="svg1"
   xml:space="preserve"
   inkscape:version="1.4 (86a8ad7, 2024-10-11)"
   sodipodi:docname="IbericLogov2.svg"
   xmlns:inkscape="http://www.inkscape.org/namespaces/inkscape"
   xmlns:sodipodi="http://sodipodi.sourceforge.net/DTD/sodipodi-0.dtd"
   xmlns="http://www.w3.org/2000/svg"
   xmlns:svg="http://www.w3.org/2000/svg"><sodipodi:namedview
     id="namedview1"
     pagecolor="#ffffff"
     bordercolor="#000000"
     borderopacity="0.25"
     inkscape:showpageshadow="2"
     inkscape:pageopacity="0.0"
     inkscape:pagecheckerboard="0"
     inkscape:deskcolor="#d1d1d1"
     inkscape:document-units="px"
     inkscape:zoom="0.70710678"
     inkscape:cx="589.01995"
     inkscape:cy="605.99051"
     inkscape:window-width="1920"
     inkscape:window-height="991"
     inkscape:window-x="-9"
     inkscape:window-y="-9"
     inkscape:window-maximized="1"
     inkscape:current-layer="layer1" /><defs
     id="defs1"><inkscape:path-effect
       effect="fillet_chamfer"
       id="path-effect30"
       is_visible="true"
       lpeversion="1"
       nodesatellites_param="F,0,0,1,0,40.440224,0,1 @ F,0,0,1,0,34.78337,0,1 @ F,0,0,1,0,106.73928,0,1 @ F,0,0,1,0,90.940224,0,1"
       radius="40.440224"
       unit="px"
       method="auto"
       mode="F"
       chamfer_steps="1"
       flexible="false"
       use_knot_distance="true"
       apply_no_radius="true"
       apply_with_radius="true"
       only_selected="false"
       hide_knots="false" /><inkscape:path-effect
       effect="fillet_chamfer"
       id="path-effect29"
       is_visible="true"
       lpeversion="1"
       nodesatellites_param="F,0,0,1,0,13.632259,0,1 @ F,0,0,1,0,17.783017,0,1 @ F,0,0,1,0,89.909824,0,1 @ F,0,0,1,0,72.732764,0,1"
       radius="38.132259"
       unit="px"
       method="auto"
       mode="F"
       chamfer_steps="1"
       flexible="false"
       use_knot_distance="true"
       apply_no_radius="true"
       apply_with_radius="true"
       only_selected="false"
       hide_knots="false" /><inkscape:path-effect
       effect="fillet_chamfer"
       id="path-effect28"
       is_visible="true"
       lpeversion="1"
       nodesatellites_param="F,0,0,1,0,0,0,1 @ F,0,0,1,0,24.374122,0,1 @ F,0,0,1,0,0,0,1 @ F,0,0,1,0,0,0,1 @ F,0,0,1,0,0,0,1 @ F,0,0,1,0,0,0,1 @ F,0,0,1,0,0,0,1 @ F,0,0,1,0,0,0,1 @ F,0,0,1,0,0,0,1 @ F,0,0,1,0,0,0,1 @ F,0,0,1,0,0,0,1 @ F,0,0,1,0,0,0,1 @ F,0,0,1,0,17.87183,0,1"
       radius="0"
       unit="px"
       method="auto"
       mode="F"
       chamfer_steps="1"
       flexible="false"
       use_knot_distance="true"
       apply_no_radius="true"
       apply_with_radius="true"
       only_selected="false"
       hide_knots="false" /></defs><g
     inkscape:label="Capa 1"
     inkscape:groupmode="layer"
     id="layer1"
     style="display:inline"
     transform="matrix(0.98829469,0,0,0.98829469,3.4303734e-7,79.440718)"><path
       d="M 543.43295,11.456 A 532.2251,532.2251 0 0 0 11.208341,543.68061 532.2251,532.2251 0 0 0 167.15756,918.16694 H 919.7103 A 532.2251,532.2251 0 0 0 1075.6595,543.68061 532.2251,532.2251 0 0 0 543.43295,11.456 Z"
       style="fill:#300404;fill-opacity:0;stroke:#300404;stroke-width:22.912"
       id="path61"
       inkscape:label="BordeExtenoLogo" /><path
       d="M 544.41342,42.786079 A 499.60776,499.60776 0 0 0 44.805998,542.3935 499.60776,499.60776 0 0 0 175.73959,878.47163 H 913.0892 A 499.60776,499.60776 0 0 0 1044.0228,542.3935 499.60776,499.60776 0 0 0 544.41342,42.786079 Z"
       style="display:inline;fill:#300404;stroke-width:5.73705"
       id="path53"
       inkscape:label="BordeInternoLogo" /><path
       d="M 544.24936,73.026313 A 467.80872,469.35757 0 0 0 76.440763,542.38374 467.80872,469.35757 0 0 0 220.61655,879.76069 c 8.40708,-1.03823 17.54468,-1.64258 27.18164,-1.64258 h 608.19336 c 4.49936,0 8.85489,0.166 13.125,0.4043 A 467.80872,469.35757 0 0 0 1012.0579,542.38374 467.80872,469.35757 0 0 0 544.24936,73.026313 Z"
       style="display:inline;fill:#ffeea3;stroke-width:5.3807"
       id="path59"
       inkscape:label="Fondo_Beige" /><path
       d="M 84.565763,636.86811 A 469.56879,469.56879 0 0 0 216.17709,878.22749 H 871.06772 A 469.56879,469.56879 0 0 0 1002.679,636.86811 Z"
       style="display:inline;fill:#300404;stroke-width:0.938715"
       id="path57"
       inkscape:label="FondoLetras" /><path
       d="M 1010.8761,508.37938 H 76.368794 a 469.56879,469.56879 0 0 0 -2.315619,35.34482 469.56879,469.56879 0 0 0 10.512876,93.18398 H 1002.6789 a 469.56879,469.56879 0 0 0 10.5129,-93.18398 469.56879,469.56879 0 0 0 -2.3157,-35.34482 z"
       style="display:inline;fill:#6c7243;stroke-width:0.938715"
       id="path7"
       inkscape:label="Pasto"
       sodipodi:insensitive="true" /><path
       d="M 544.16147,105.99507 A 434.55811,425.26529 0 0 0 109.60483,531.25874 434.55811,425.26529 0 0 0 292.92123,877.07319 H 795.40365 A 434.55811,425.26529 0 0 0 978.72006,531.25874 434.55811,425.26529 0 0 0 544.16147,105.99507 Z"
       style="display:inline;fill:#300404;stroke-width:4.93644"
       id="path55"
       inkscape:label="FondoBurgers" /><path
       d="M 545.69792,212.97692 C 378.12583,213.26633 239.04614,319.79443 226.43306,457.51785 h 64.56278 l 93.28004,-113.69246 c 0.86361,22.64166 40.82351,15.95499 58.37829,30.61357 l 113.00825,-64.07575 c 7.41923,-14.01284 51.08138,39.32857 66.02457,53.26374 l 42.15205,14.30063 c 6.36472,2.15931 99.90591,-28.59506 101.44028,-23.44355 l 30.68846,103.03382 h 68.99621 C 852.35088,319.79405 713.27046,213.2658 545.69792,212.97692 Z"
       style="display:inline;fill:#b46b2c;fill-opacity:1;stroke:#b46b2c;stroke-width:9.31503538;stroke-linecap:round;stroke-linejoin:round;stroke-dasharray:none;stroke-opacity:1"
       id="path14-9-1"
       inkscape:label="FondoPan"
       sodipodi:nodetypes="cccccccssccc" /><path
       d="M 862.97403,476.59335 771.5137,357.97269 c -3.55235,-4.60724 -13.26746,-6.57743 -21.78291,-4.41699 l -120.35088,30.53434 126.97827,89.29585 c 1.36405,0.95926 2.32988,2.05382 2.94009,3.20746 z"
       style="display:inline;fill:#300404;fill-opacity:1;stroke-width:1.1553"
       id="path16-27"
       inkscape:label="Montaña3" /><path
       d="m 798.58175,421.94242 c -10.74459,2.26835 -21.99412,-25.68567 -33.78825,-25.62033 -22.05284,-8.55307 -37.52606,-3.78766 -55.97089,-13.72871 0.0714,-1.5918 0.23463,-3.17965 0.48952,-4.75775 l -89.50245,22.707 108.02374,75.96626 h 112.81999 z"
       style="display:inline;fill:#6c7243;stroke-width:1.1553"
       id="path44"
       sodipodi:nodetypes="cccccccc"
       inkscape:label="Fondo_Montaña3" /><path
       d="m 798.58175,421.94242 -36.6374,-47.51696 c -2.66425,-3.45543 -8.79395,-5.42713 -15.28528,-5.28577 -2.16379,0.0471 -4.36782,0.33284 -6.49767,0.86904 l -40.17775,10.11503 c 1.08525,3.92743 56.1469,15.46407 58.91584,17.58281 17.42107,16.58458 33.36135,25.95509 39.68226,24.23585 z"
       style="display:inline;fill:#ffffff;stroke-width:0.938715"
       id="path45"
       sodipodi:nodetypes="ccssccc"
       inkscape:label="Nieve3" /><path
       d="m 800.36182,476.59335 c -0.60465,-1.15364 -1.5617,-2.2482 -2.91335,-3.20746 L 568.45471,310.87009 c -5.32033,-3.77583 -14.40198,-4.01144 -20.36352,-0.52797 l -106.45479,62.20397 171.5652,99.3556 c 2.15002,1.24511 3.38779,2.92806 4.02812,4.69166 z"
       style="display:inline;fill:#300404;fill-opacity:1;stroke-width:1.08097"
       id="path13-5"
       inkscape:label="Montaña2" /><path
       d="m 627.13057,368.78584 c -16.18456,12.09949 -40.05682,-7.1325 -65.21688,-7.13117 -30.41471,-9.4e-4 -58.52114,16.03151 -73.74413,-0.50689 l -45.00883,26.93305 150.05692,88.9891 c 2.56229,-0.33193 5.2136,-0.56652 8.01207,-0.56652 h 174.11516 z"
       style="display:inline;fill:#6c7243;stroke-width:1.07746"
       id="path40"
       sodipodi:nodetypes="cccccscc"
       inkscape:label="Fondo_Montaña2" /><path
       d="m 644.20341,381.10502 -76.12573,-55.23606 c -2.62027,-1.90432 -6.16874,-2.91421 -9.79418,-3.0105 -3.62541,-0.0963 -7.3293,0.72195 -10.26535,2.47881 l -63.60346,38.03996 c 15.223,16.5384 52.06829,-0.0725 82.48302,-0.0712 25.16004,-9.4e-4 61.12116,29.8985 77.3057,17.79902 z"
       style="display:inline;fill:#ffffff;stroke-width:0.938715"
       id="path41"
       sodipodi:nodetypes="ccscccc"
       inkscape:label="Nieve2" /><path
       d="m 623.23511,476.59335 c -0.66256,-1.7636 -1.94332,-3.44655 -4.16801,-4.69166 L 390.17013,343.79502 c -5.31808,-2.97639 -12.86543,-2.47076 -16.92172,1.13323 l -148.18777,131.6651 z"
       style="display:inline;fill:#300404;fill-opacity:1;stroke-width:0.949407"
       id="path10-3"
       inkscape:label="Montaña1" /><path
       d="m 434.32361,385.08318 c -6.85756,13.6532 -24.42031,5.62875 -45.83753,5.72396 -18.06354,-0.0727 -36.08548,10.58129 -44.91715,-0.0219 l -96.59417,85.82639 h 350.88695 z"
       style="display:inline;fill:#6c7243;stroke-width:0.949407"
       id="path36"
       sodipodi:nodetypes="cccccc"
       inkscape:label="Fondo_Montaña1" /><path
       d="m 443.9483,390.2274 -51.76787,-28.73127 c -2.65902,-1.4882 -5.87565,-2.10429 -8.93429,-1.89944 -3.05862,0.20485 -5.96013,1.23051 -7.98825,3.0325 l -39.10866,34.735 c 8.83168,10.60329 33.36307,-5.89222 51.4266,-5.81948 21.41722,-0.0952 49.51491,12.33591 56.37247,-1.31731 z"
       style="display:inline;fill:#ffffff;stroke-width:0.938715"
       id="path37"
       sodipodi:nodetypes="ccscccc"
       inkscape:label="Nieve1" /><rect
       style="fill:#300404;fill-opacity:1;stroke-width:1.15266"
       id="rect27"
       width="616.50018"
       height="17.19796"
       x="223.89313"
       y="459.37866"
       rx="26.906317"
       ry="17.19796"
       inkscape:label="Divisor" /><rect
       style="display:inline;fill:#300404;fill-opacity:1;stroke-width:1.49712"
       id="rect27-5"
       width="771.03375"
       height="23.19796"
       x="157.96765"
       y="903.07318"
       rx="9.5118179"
       ry="23.19796"
       inkscape:label="Divisor" /><rect
       style="fill:#300404;fill-opacity:1;stroke-width:0.930604"
       id="rect28"
       width="682.35773"
       height="103.54839"
       x="206.42683"
       y="462.65265"
       rx="36.902451"
       ry="37.548603"
       inkscape:label="Borde_Carne" /><rect
       style="display:inline;fill:#944418;fill-opacity:1;stroke-width:0.77777"
       id="rect28-5"
       width="654.68085"
       height="75.387276"
       x="219.16655"
       y="477.9903"
       rx="35.40567"
       ry="27.336849"
       inkscape:label="Fondo_Carne" /><path
       style="display:inline;fill:#300404;fill-opacity:1;stroke-width:1.00227"
       id="rect28-1"
       width="734.90607"
       height="111.52265"
       x="177.79395"
       y="566.56458"
       rx="0"
       ry="0"
       inkscape:path-effect="#path-effect30"
       sodipodi:type="rect"
       d="m 218.23417,566.56458 h 659.68247 a 34.78337,34.78337 45 0 1 34.78337,34.78337 92.957494,92.957494 144.28608 0 1 -106.73928,76.73928 l -537.22656,0 A 90.940224,90.940224 45 0 1 177.79395,587.147 32.086197,32.086197 153.02576 0 1 218.23417,566.56458 Z"
       transform="matrix(0.93871512,0,0,0.93871512,36.937259,25.529612)"
       inkscape:label="Borde_PanBajo" /><path
       style="display:inline;fill:#b46b2c;fill-opacity:1;stroke-width:0.837666"
       id="rect28-5-3"
       width="705.09784"
       height="81.192841"
       x="191.51477"
       y="583.08331"
       rx="0"
       ry="0"
       inkscape:path-effect="#path-effect29"
       sodipodi:type="rect"
       d="m 205.14703,583.08331 h 673.68256 a 17.783017,17.783017 45 0 1 17.78302,17.78302 77.796472,77.796472 144.8062 0 1 -89.90982,63.40982 H 264.24753 a 72.732764,72.732764 45 0 1 -72.73276,-72.73276 11.344853,11.344853 148.17658 0 1 13.63226,-8.46008 z"
       transform="matrix(0.93871512,0,0,0.93871512,36.937259,25.529612)"
       inkscape:label="Fondo_PanBajo" /><path
       d="m 397.05007,678.49937 v 47.79715 2.91201 q 0,3.21325 1.40579,4.01657 1.50622,0.7029 7.53107,0.7029 h 2.00828 v 4.71946 H 374.75812 V 733.928 h 2.00828 q 6.12527,0 7.53107,-0.7029 1.50621,-0.80332 1.50621,-4.01657 v -2.91201 -47.79715 -2.91201 q 0,-3.21325 -1.50621,-3.91615 -1.4058,-0.80331 -7.53107,-0.80331 h -2.00828 v -4.71947 h 33.23709 v 4.71947 h -2.00828 q -6.02485,0 -7.53107,0.80331 -1.40579,0.7029 -1.40579,3.91615 z m 17.7733,-12.35094 h 36.04869 q 9.13769,0 14.56005,2.40994 4.31781,1.90787 7.02899,6.22568 2.8116,4.2174 2.8116,9.03728 0,8.23396 -6.72775,13.15425 -3.31367,2.51036 -9.53934,3.81574 10.24224,1.80745 15.16254,6.32609 4.92029,4.41823 4.92029,11.84887 0,9.23811 -7.43065,14.45964 -7.33023,5.22154 -20.38407,5.22154 H 414.82337 V 733.928 h 1.80746 q 6.12526,0 7.53106,-0.7029 1.50621,-0.80332 1.50621,-4.01657 v -2.91201 -47.79715 -2.91201 q 0,-3.21325 -1.50621,-3.91615 -1.4058,-0.80331 -7.53106,-0.80331 h -1.80746 z m 22.09112,32.63461 h 8.93686 q 9.63976,0 13.65633,-3.11284 4.11698,-3.11284 4.11698,-10.54349 0,-8.73603 -5.52278,-12.15011 -3.11284,-2.1087 -10.54349,-2.1087 h -4.01657 q -3.91615,0 -5.32195,1.10455 -1.30538,1.00415 -1.30538,3.91616 z m 0,4.71946 v 24.0994 q 0,4.11698 1.00414,5.22154 1.00414,1.10456 4.81988,1.10456 h 4.2174 q 9.13769,0 13.65632,-2.30953 6.12527,-3.01243 6.12527,-12.95343 0,-9.84059 -7.22982,-13.25467 -4.41823,-1.90787 -13.75674,-1.90787 z m 110.65649,-37.35407 1.4058,25.70603 h -4.31781 q -2.20911,-13.35509 -7.22982,-17.27124 -2.51035,-2.1087 -6.22567,-2.91201 -3.61491,-0.80331 -10.34266,-0.80331 h -5.22154 q -4.11698,0 -5.22154,0.90373 -1.10455,0.90372 -1.10455,4.11698 v 22.89443 h 2.40994 q 7.1294,0 10.34266,-3.21326 3.31366,-3.21325 3.71532,-10.54348 h 4.71947 v 32.93584 h -4.71947 q -0.30124,-8.23396 -3.81574,-11.74846 -1.50621,-1.60662 -3.81574,-2.10869 -2.20911,-0.60249 -6.82816,-0.60249 h -2.00828 v 25.60561 q 0,2.61077 0.80331,3.31367 1.50621,1.50622 6.42651,1.50622 h 6.62733 q 12.65219,0 17.27124,-5.92444 3.91615,-4.71947 6.02485,-16.16668 h 4.41822 l -2.00828,26.81058 h -61.6543 V 733.928 h 1.80745 q 6.12527,0 7.53107,-0.7029 1.50621,-0.80332 1.50621,-4.01657 v -2.91201 -47.79715 -2.91201 q 0,-3.21325 -1.50621,-3.91615 -1.4058,-0.80331 -7.53107,-0.80331 h -1.80745 v -4.71947 z m 33.94008,37.35407 v 22.89443 2.8116 q 0,3.21325 1.4058,4.01657 1.50621,0.7029 7.63147,0.7029 h 1.80746 v 4.71946 H 559.41994 V 733.928 h 1.80746 q 6.12526,0 7.53106,-0.7029 1.50621,-0.80332 1.50621,-4.01657 v -2.8116 -47.89756 -2.91201 q 0,-3.21325 -1.50621,-3.91615 -1.4058,-0.80331 -7.53106,-0.80331 h -1.80746 v -4.71947 h 34.7433 q 12.65219,0 19.58077,4.71947 6.92857,4.71946 6.92857,13.25467 0,14.96171 -21.38821,17.97413 5.92443,1.50622 9.13769,5.02071 3.21325,3.5145 4.81988,10.44308 l 1.60662,6.32609 q 1.30539,5.22153 2.30953,6.92858 1.00414,1.70704 2.71118,1.70704 2.00828,0 3.01243,-2.30953 1.00414,-2.40994 1.30538,-7.63148 h 4.2174 q -0.20083,9.03728 -3.21326,13.35509 -3.01242,4.21739 -9.2381,4.21739 -5.92444,0 -8.93686,-3.71532 -3.01243,-3.71532 -3.91615,-12.25053 l -0.50208,-5.12112 q -1.00414,-9.23811 -5.12112,-12.55177 -3.71532,-3.01243 -10.14183,-3.01243 z m 0,-4.71946 h 11.04556 q 7.8323,0 11.84887,-3.41409 3.91615,-3.11283 3.91615,-11.14597 0,-6.82816 -3.51449,-10.04141 -3.5145,-3.31367 -10.94515,-3.31367 h -5.42236 q -4.9203,0 -5.82403,0.7029 -0.80331,0.60248 -1.00414,1.4058 -0.10041,0.70289 -0.10041,3.71532 z m 73.90491,-20.28367 v 47.79715 2.91201 q 0,3.21325 1.4058,4.01657 1.50621,0.7029 7.53106,0.7029 h 2.00829 v 4.71946 H 633.12403 V 733.928 h 2.00828 q 6.12526,0 7.53106,-0.7029 1.50622,-0.80332 1.50622,-4.01657 v -2.91201 -47.79715 -2.91201 q 0,-3.21325 -1.50622,-3.91615 -1.4058,-0.80331 -7.53106,-0.80331 h -2.00828 v -4.71947 h 33.23709 v 4.71947 h -2.00829 q -6.02485,0 -7.53106,0.80331 -1.4058,0.7029 -1.4058,3.91615 z m 78.92553,-13.05384 1.50622,29.0197 h -4.41823 q -3.11284,-10.44308 -5.72361,-14.96171 -2.91201,-4.81988 -7.43064,-7.43065 -4.41823,-2.71119 -9.63976,-2.71119 -4.81988,0 -9.13769,2.51036 -4.31781,2.40994 -6.62734,6.62733 -4.92029,8.63562 -4.92029,25.00313 0,16.16668 5.32195,24.0994 5.42236,7.83231 16.56834,7.83231 12.45135,0 18.67703,-10.44308 2.61077,-4.31781 4.01657,-11.94928 l 4.71946,0.80331 q -1.70704,12.65219 -9.13769,19.48035 -7.43064,6.82816 -19.48034,6.82816 -14.8613,0 -24.40065,-10.44307 -9.53934,-10.44307 -9.53934,-26.60975 0,-15.16254 9.43893,-26.40893 10.14183,-12.0497 24.60147,-12.0497 5.02071,0 8.73603,1.4058 3.71533,1.4058 9.03728,5.32195 l 4.01656,-5.92444 z"
       id="text30"
       style="font-weight:500;font-size:120.497px;font-family:'Frank Ruehl CLM';-inkscape-font-specification:'Frank Ruehl CLM Medium';letter-spacing:0px;word-spacing:0px;fill:#ffffff;stroke-width:10.0415"
       inkscape:label="Iberic"
       aria-label="IBERIC" /><path
       style="-inkscape-font-specification:'Frank Ruehl CLM';fill:#ffffff;stroke-width:13.6377"
       d="m 209.48618,756.07939 h 48.95952 q 12.41035,0 19.77474,3.27306 5.86423,2.59117 9.54642,8.45541 3.81857,5.72785 3.81857,12.27397 0,11.18296 -9.13729,17.86545 -4.50046,3.40944 -12.95586,5.18235 13.9105,2.45479 20.593,8.59178 6.6825,6.00061 6.6825,16.09255 0,12.54673 -10.09194,19.63836 -9.95556,7.09163 -27.68463,7.09163 h -49.50503 v -6.40975 h 2.45479 q 8.31903,0 10.22831,-0.95464 2.04567,-1.09102 2.04567,-5.4551 v -3.95495 -64.91569 -3.95494 q 0,-4.36408 -2.04567,-5.31873 -1.90928,-1.09102 -10.22831,-1.09102 h -2.45479 z m 30.00305,44.32269 h 12.13759 q 13.09224,0 18.54734,-4.2277 5.59148,-4.22771 5.59148,-14.31964 0,-11.86484 -7.50076,-16.50168 -4.2277,-2.86393 -14.31964,-2.86393 h -5.4551 q -5.31872,0 -7.22801,1.50016 -1.7729,1.36377 -1.7729,5.31872 z m 0,6.40974 v 32.7306 q 0,5.59148 1.36377,7.09163 1.36378,1.50015 6.54612,1.50015 h 5.72786 q 12.41035,0 18.54734,-3.13668 8.31902,-4.09132 8.31902,-17.5927 0,-13.36499 -9.81918,-18.00183 -6.00061,-2.59117 -18.68371,-2.59117 z M 397.00536,785.67331 V 816.631 q 0,17.04719 -6.00061,25.63897 -9.6828,14.31964 -32.59422,14.31964 -23.86606,0 -33.68524,-14.04688 -3.54582,-5.18235 -4.09133,-15.41066 v -9.41005 -44.8682 -3.95494 q 0,-4.36408 -2.04566,-5.31873 -1.90929,-1.09102 -10.09194,-1.09102 h -2.31841 v -6.40974 h 44.59544 v 6.40974 h -2.59117 q -8.31903,0 -10.36469,1.09102 -1.90929,0.95465 -1.90929,5.31873 v 3.95494 45.68647 q 0,9.54642 0.81827,13.36499 0.81826,3.81857 3.54581,7.63714 7.09163,9.6828 21.8204,9.6828 8.31903,0 14.59239,-3.40943 6.40975,-3.54582 9.68281,-9.95556 1.90928,-3.54582 2.59117,-7.63714 0.68189,-4.2277 0.68189,-12.41035 v -30.13943 q 0,-14.04688 -3.00031,-18.41096 -3.0003,-4.36408 -12.68311,-4.77322 v -6.40974 h 38.86759 v 6.40974 q -9.81918,0.40914 -12.81948,4.77322 -3.00031,4.36408 -3.00031,18.41096 z m 51.55072,21.13851 v 31.09407 3.81857 q 0,4.36408 1.90929,5.4551 2.04566,0.95464 10.36469,0.95464 h 2.45479 v 6.40975 h -44.73182 v -6.40975 h 2.4548 q 8.31902,0 10.22831,-0.95464 2.04566,-1.09102 2.04566,-5.4551 v -3.81857 -65.05207 -3.95494 q 0,-4.36408 -2.04566,-5.31873 -1.90929,-1.09102 -10.22831,-1.09102 h -2.4548 v -6.40974 h 47.18662 q 17.18356,0 26.59361,6.40974 9.41005,6.40975 9.41005,18.00183 0,20.32025 -29.04841,24.41158 8.04627,2.04566 12.41035,6.81887 4.36408,4.77321 6.54612,14.18326 l 2.18204,8.59178 q 1.77291,7.09163 3.13668,9.41005 1.36378,2.31842 3.6822,2.31842 2.72755,0 4.09132,-3.13668 1.36378,-3.27306 1.77291,-10.36469 h 5.72785 q -0.27275,12.27397 -4.36408,18.1382 -4.09132,5.72786 -12.54673,5.72786 -8.04627,0 -12.13759,-5.04597 -4.09133,-5.04597 -5.31873,-16.63805 l -0.68188,-6.95526 q -1.36378,-12.54673 -6.95526,-17.04718 -5.04596,-4.09133 -13.77412,-4.09133 z m 0,-6.40974 h 15.00153 q 10.63744,0 16.09254,-4.63684 5.31872,-4.2277 5.31872,-15.1379 0,-9.27367 -4.77321,-13.63775 -4.77321,-4.50046 -14.86515,-4.50046 h -7.36438 q -6.6825,0 -7.9099,0.95465 -1.09102,0.81826 -1.36377,1.90928 -0.13638,0.95464 -0.13638,5.04597 z m 153.56117,-45.27733 1.90929,38.32208 h -5.86423 q -8.45541,-33.00336 -31.91234,-33.00336 -14.18326,0 -21.68402,12.00122 -7.36439,11.86484 -7.36439,34.63989 0,21.00213 7.22801,31.77595 3.40944,5.04597 9.54643,8.18265 6.13698,3.13669 12.6831,3.13669 6.6825,0 12.54673,-3.13669 5.86424,-3.13668 8.45541,-8.18265 2.72755,-5.4551 2.72755,-14.59239 0,-5.59148 -1.90929,-6.81887 -1.90928,-1.36378 -10.50106,-1.36378 h -2.59118 v -6.40974 h 43.36805 v 6.40974 h -2.04566 q -9.68281,0 -11.45571,1.90929 -0.81827,0.95464 -0.81827,8.4554 v 30.00305 h -5.72785 l -5.04597,-12.27397 q -6.6825,6.68249 -13.22862,9.54642 -6.54612,2.86393 -15.1379,2.86393 -9.81918,0 -18.8201,-3.95495 -8.86453,-3.95495 -15.27428,-11.18295 -12.00122,-13.50138 -12.00122,-34.36713 0,-27.13913 19.77474,-43.09529 12.27398,-9.95556 27.82101,-9.95556 7.50076,0 12.81949,2.04566 5.31872,2.04566 12.00122,7.36439 l 5.31872,-8.31903 z m 103.37405,0.95464 1.90928,34.91264 h -5.86423 q -3.00031,-18.13821 -9.81918,-23.45693 -3.40944,-2.86393 -8.45541,-3.95495 -4.90959,-1.09102 -14.04688,-1.09102 h -7.09163 q -5.59148,0 -7.09163,1.2274 -1.50015,1.2274 -1.50015,5.59148 v 31.09407 h 3.27306 q 9.6828,0 14.04688,-4.36408 4.50046,-4.36408 5.04597,-14.31964 h 6.40974 v 44.73182 h -6.40974 q -0.40913,-11.18295 -5.18235,-15.95617 -2.04566,-2.18204 -5.18234,-2.86392 -3.00031,-0.81827 -9.27367,-0.81827 h -2.72755 v 34.77626 q 0,3.54582 1.09102,4.50046 2.04566,2.04566 8.72816,2.04566 h 9.00091 q 17.18357,0 23.45693,-8.04627 5.31873,-6.40974 8.18265,-21.95678 h 6.00061 l -2.72755,36.4128 h -83.73578 v -6.40975 h 2.45479 q 8.31903,0 10.22832,-0.95464 2.04566,-1.09102 2.04566,-5.4551 v -3.95495 -64.91569 -3.95494 q 0,-4.36408 -2.04566,-5.31873 -1.90929,-1.09102 -10.22832,-1.09102 h -2.45479 v -6.40974 z m 46.09573,50.73243 v 31.09407 3.81857 q 0,4.36408 1.90928,5.4551 2.04566,0.95464 10.36469,0.95464 h 2.4548 v 6.40975 h -44.73182 v -6.40975 h 2.45479 q 8.31903,0 10.22831,-0.95464 2.04567,-1.09102 2.04567,-5.4551 v -3.81857 -65.05207 -3.95494 q 0,-4.36408 -2.04567,-5.31873 -1.90928,-1.09102 -10.22831,-1.09102 h -2.45479 v -6.40974 h 47.18661 q 17.18357,0 26.59361,6.40974 9.41005,6.40975 9.41005,18.00183 0,20.32025 -29.04841,24.41158 8.04628,2.04566 12.41036,6.81887 4.36408,4.77321 6.54612,14.18326 l 2.18204,8.59178 q 1.7729,7.09163 3.13668,9.41005 1.36377,2.31842 3.68219,2.31842 2.72755,0 4.09133,-3.13668 1.36377,-3.27306 1.7729,-10.36469 h 5.72786 q -0.27276,12.27397 -4.36408,18.1382 -4.09133,5.72786 -12.54673,5.72786 -8.04627,0 -12.1376,-5.04597 -4.09132,-5.04597 -5.31872,-16.63805 l -0.68189,-6.95526 q -1.36377,-12.54673 -6.95525,-17.04718 -5.04597,-4.09133 -13.77413,-4.09133 z m 0,-6.40974 h 15.00152 q 10.63745,0 16.09255,-4.63684 5.31872,-4.2277 5.31872,-15.1379 0,-9.27367 -4.77321,-13.63775 -4.77322,-4.50046 -14.86515,-4.50046 h -7.36439 q -6.68249,0 -7.90989,0.95465 -1.09102,0.81826 -1.36378,1.90928 -0.13637,0.95464 -0.13637,5.04597 z m 139.37791,-45.14095 1.63653,35.45815 h -5.86423 q -2.72755,-10.50107 -8.18265,-18.27459 -8.31903,-11.86484 -22.77505,-11.86484 -8.72816,0 -14.04688,4.50046 -5.31872,4.36408 -5.31872,11.59208 0,12.1376 17.86545,16.77444 l 14.59239,3.68219 q 14.86515,3.68219 19.91112,8.59178 8.18265,7.9099 8.18265,20.86576 0,13.77413 -9.00092,21.95678 -8.86453,8.04627 -23.86606,8.04627 -8.86454,0 -15.41066,-2.31842 -6.40974,-2.31842 -13.22861,-7.90989 l -6.13699,9.27367 h -5.31872 l -0.54551,-38.86759 h 5.86423 q 2.86393,14.59239 10.63744,23.32055 9.27367,10.22831 23.72969,10.22831 10.22831,0 16.50168,-5.4551 6.13698,-5.4551 6.13698,-13.63775 0,-8.18265 -6.27336,-12.95586 -2.04566,-1.63653 -4.09133,-2.31842 -2.04566,-0.68188 -9.81918,-2.72755 l -12.95586,-3.27306 q -15.00152,-3.81857 -21.27489,-9.95555 -6.13699,-6.27337 -6.13699,-17.45632 0,-12.81949 8.18265,-20.59301 8.31903,-7.90989 21.68403,-7.90989 15.00152,0 24.8207,9.41005 l 5.4551,-8.18265 z"
       id="text31"
       inkscape:label="Burgers"
       aria-label="BURGERS" /><path
       id="rect45"
       style="fill:#ffffff;stroke-width:0.938715"
       d="m 777.5461,487.04558 h 72.30954 c 7.80071,0 13.06478,7.60805 12.91912,11.17714 l -0.16594,4.0656 c -0.14566,3.5691 -10.24073,7.08337 -12.83615,-0.27292 l -0.24883,-0.70525 c -2.59544,-7.3563 -86.09123,-1.38224 -86.07924,-4.95429 l 0.0207,-6.18137 c 0.012,-3.57204 6.28,-3.12891 14.08073,-3.12891 z"
       sodipodi:nodetypes="sssssssss"
       inkscape:label="BrilloCarne" /><path
       id="path50"
       style="fill:none;fill-rule:evenodd;stroke:#b46b2c;stroke-width:12.7"
       d="m 530.20212,166.741 c 18.07521,0.25456 33.38205,-6.081 37.14516,11.33617 4.36309,20.19409 -24.36367,20.39387 -28.60773,20.33538 -3.23131,-0.0445 -32.57413,-2.80535 -31.52558,-25.62929 1.18553,-25.80582 17.74886,-39.29913 43.15086,-37.96579 28.38257,1.48978 49.77584,27.19253 48.15599,55.17242 -1.07562,18.5795 -11.91917,35.60201 -28.01549,44.83269"
       sodipodi:nodetypes="csssssc"
       inkscape:label="Cola" /><circle
       style="fill:#b46b2c;fill-opacity:1;stroke:#300404;stroke-width:13.0347;stroke-dasharray:none;stroke-opacity:1"
       id="path51"
       cx="551.3255"
       cy="522.57318"
       r="110.33267"
       inkscape:label="Nariz" /><rect
       style="fill:#300404;fill-opacity:1;stroke:#300404;stroke-width:0;stroke-dasharray:none;stroke-opacity:1"
       id="rect51"
       width="38"
       height="118"
       x="504.82553"
       y="465.07318"
       rx="5000"
       inkscape:label="HuecoNariz_Izquierdo" /><rect
       style="display:inline;fill:#300404;fill-opacity:1;stroke:#300404;stroke-width:0;stroke-dasharray:none;stroke-opacity:1"
       id="rect51-6"
       width="38"
       height="118"
       x="563.8255"
       y="464.07318"
       rx="5000"
       inkscape:label="HuecoNariz_Derecho" /></g></svg>
